<svg width="124" height="124" viewBox="0 0 124 124" fill="none" xmlns="http://www.w3.org/2000/svg">
<path d="M119.528 3.18461C123.094 6.89145 117.601 17.4547 115.32 21.2561C114.303 22.9478 111.23 25.6844 111.201 27.6099C111.171 29.5355 117.078 36.6059 118.462 39.2877C130.75 63.116 121.794 99.4231 99.4511 114.26C62.6688 138.691 5.32115 114.693 0.405214 69.7386C-0.650691 60.0659 0.0715119 40.875 6.02841 32.8592C9.07659 28.7593 12.837 32.501 16.5924 33.6802C19.5061 34.5957 35.3746 39.3773 36.057 35.0037C36.3608 33.0632 26.6484 26.4954 24.9102 24.8734C21.8072 21.9825 13.4297 13.8175 11.2282 10.7077C7.02953 4.78178 17.5487 5.79183 20.9505 5.96598C36.2064 6.75213 46.7106 14.1957 60.5968 17.5592C70.8072 20.0321 73.5266 14.1608 81.0375 9.36433C89.41 4.02051 100.94 -0.372967 110.986 0.025083C113.741 0.134547 117.571 1.13465 119.528 3.16968V3.18461ZM11.8707 39.9445C9.01183 42.0442 6.97972 56.9014 8.99689 59.6679C9.65932 60.5784 11.3926 61.4392 12.4983 61.6333C21.6777 63.2553 36.4703 60.9217 45.5551 58.429C64.5813 53.2145 97.9868 35.566 109.248 19.1613C111.484 15.9023 116.256 8.24979 109.876 7.10042C98.4052 5.03554 81.2616 16.38 71.7734 22.4851C63.3561 27.9035 46.2275 41.8253 36.8439 42.7657C28.1974 43.6364 22.3252 39.8201 14.8891 39.3176C14.0971 39.2629 12.4784 39.4917 11.8658 39.9395L11.8707 39.9445ZM57.4241 26.3113C57.6681 25.4008 57.6532 24.3758 57.0107 23.6344C56.5823 23.1418 46.5114 18.5643 45.1616 18.0717C41.0625 16.569 30.3391 13.2204 26.2848 12.5736C24.9152 12.3547 23.5455 12.4542 22.1758 12.4592C22.0164 12.5736 23.147 14.136 23.406 14.4544C26.7929 18.6389 34.0746 24.8584 38.358 28.3463C47.1489 35.4963 48.8274 29.3663 57.4241 26.3063V26.3113ZM113.143 51.6472C114.234 50.9506 112.202 44.751 111.758 43.5021C110.658 40.4222 108.63 34.6156 104.546 35.3172C97.0305 40.7605 89.7089 46.995 81.8394 51.9358C67.5299 60.9168 52.797 65.7332 35.8478 67.1313C26.7182 67.8876 18.1414 66.7681 9.05169 66.2158C8.05057 66.5492 8.2747 67.5194 8.20497 68.3653C7.95593 71.6243 10.7152 83.8892 13.7186 85.2774C15.6909 86.188 19.2272 83.3668 21.334 82.4612C32.0674 77.8538 42.8008 76.1223 53.7782 72.6194C71.8332 66.8527 89.435 57.3592 107.739 52.4582C108.875 52.1547 112.675 51.9507 113.143 51.6522V51.6472ZM111.629 57.7971C105.811 58.3792 89.3702 65.2605 83.5378 68.0419C80.2555 69.6092 70.3091 73.5797 76.6445 77.5901C84.509 82.5657 89.5545 85.3222 95.2325 93.318C97.6929 96.7811 99.5059 104.444 104.292 99.7167C111.649 92.4423 117.118 72.9827 116.206 62.922C115.907 59.648 115.424 57.4189 111.629 57.7971ZM55.4119 79.1823C45.4356 82.4961 32.5555 83.6305 23.5405 89.1286C18.5947 92.1438 19.4563 94.2982 22.6589 98.2141C26.6235 103.065 35.001 109.748 40.943 111.763C49.196 114.559 47.8263 109.399 49.7987 103.931C51.9702 97.9006 54.0073 91.9298 56.1092 85.8795C56.9459 83.4663 61.045 78.635 55.4119 79.1823ZM67.3207 79.65C66.0805 79.9087 64.4568 82.0582 63.8691 83.1926C61.6726 87.4219 59.1275 94.9749 57.4839 99.6769C56.0096 103.886 50.74 114.489 58.2359 115.365C67.4303 116.44 86.4615 115.156 92.8368 107.658C94.8788 105.255 94.067 103.389 92.5479 100.971C88.5235 94.5719 78.6518 84.9043 72.0822 81.1526C70.608 80.3118 69.0888 79.2768 67.3207 79.65Z" fill="#09432E"/>
</svg>
