<svg width="124" height="125" viewBox="0 0 124 125" fill="none" xmlns="http://www.w3.org/2000/svg">
<path d="M108.621 23.0092C136.743 55.0082 124.597 103.924 86.0116 120.162C47.6775 136.293 3.17752 110.342 0.19273 68.1535C-2.58065 28.9456 24.8361 -5.01025 65.7473 0.611882C80.1729 2.59408 99.0581 12.1248 108.627 23.0142L108.621 23.0092ZM110.665 83.9604C113.786 81.0403 117.213 68.8785 117.354 64.5947C118.552 28.0635 81.0538 0.424308 46.8168 7.75995C30.5993 11.2377 17.3716 22.1119 11.0044 37.5284C9.73098 40.6107 6.70087 47.632 10.3803 49.7865C11.7493 50.5926 22.0979 53.9487 23.7036 54.1362C24.665 54.2478 26.0491 54.0298 26.8142 53.4417C28.2135 52.3669 29.351 41.3356 31.4198 38.3344C33.5942 35.1862 39.8355 38.0252 41.2851 33.5843C43.7263 26.1016 42.1559 23.3133 49.2278 17.2755C54.5933 12.6926 60.5629 12.8143 67.2573 13.7775C75.5171 14.9638 78.3055 18.5581 80.3139 26.4565C80.9833 29.0926 80.646 34.8567 83.9278 35.4803C86.9126 36.043 89.8722 34.1977 92.1322 37.3459C95.2328 41.6601 97.4877 52.0324 99.3702 57.4061C100.332 60.1436 102.068 63.0282 103.024 65.8824C103.981 68.7365 107.268 83.4027 109.296 84.3964C109.744 84.5941 110.353 84.2646 110.675 83.9604H110.665ZM61.9521 18.9079C55.7057 19.136 49.8721 23.7747 48.9862 30.2181C47.9543 37.7058 58.7962 35.4651 63.8195 35.4752C65.0275 35.4752 66.1399 36.0531 67.3177 36.043C68.2237 36.043 73.5037 35.3485 73.9013 35.0392C75.1446 34.0557 73.851 28.5046 73.3728 26.862C71.8175 21.4984 67.4637 18.7051 61.9521 18.9079ZM87.1089 42.6537C79.2115 40.489 85.3925 51.1908 80.3994 51.2314C75.0137 51.2719 77.8676 43.2215 74.7721 42.1619L39.2617 42.1822C35.5924 43.0086 33.7754 52.2098 34.4851 55.3884C35.0085 57.7204 40.0218 59.9611 42.1459 60.8382C53.8635 65.6695 66.5174 68.3462 77.9834 73.872L99.7427 81.5777L87.1039 42.6537H87.1089ZM10.5665 56.3871C7.96424 56.6456 7.4861 61.1018 7.28979 63.1651C6.50962 71.469 8.89039 85.319 14.5127 91.7219C16.3196 93.7801 18.0109 95.3872 20.6534 93.846C26.477 90.4444 32.0942 86.338 38.0638 83.0225C42.6894 80.4523 50.2445 77.7857 54.1655 74.9315C56.9993 72.8682 55.7208 71.7631 53.1236 70.5616C41.5267 67.0027 30.2721 62.2019 18.6803 58.6583C17.5277 58.3034 11.0547 56.3465 10.5665 56.3972V56.3871ZM71.9484 78.6526C68.2489 79.5347 68.9133 85.6587 68.5106 88.3557C67.5291 94.9157 66.1701 101.577 65.5611 108.173C65.4352 109.521 64.8614 114.672 65.556 115.265C68.6062 117.866 77.772 114.043 81.1292 112.71C87.4663 110.195 93.7831 106.784 98.9826 102.327C102.798 99.0575 109.306 94.0995 102.793 90.4089C94.9056 85.9426 84.2399 83.2152 76.1311 78.7742C74.8476 78.4397 73.2319 78.3383 71.9484 78.6475V78.6526ZM59.9086 79.6462C54.7645 80.3357 38.3154 89.6687 33.2217 92.827C31.7167 93.7598 25.4804 97.5671 24.7958 98.5151C23.3261 100.543 25.1633 102.9 26.5927 104.375C30.6849 108.583 49.1523 116.76 54.7695 116.051C57.9305 115.65 58.3432 113.252 58.8868 110.57C60.3465 103.336 62.3095 90.0641 62.5561 82.8299C62.6266 80.797 62.3145 79.3268 59.9136 79.6462H59.9086Z" fill="#09432E"/>
</svg>
