<svg width="124" height="139" viewBox="0 0 124 139" fill="none" xmlns="http://www.w3.org/2000/svg">
<path d="M84.6786 2.23604C85.1893 2.74816 85.455 4.13968 85.257 4.84837C84.2149 8.59358 70.8702 6.53992 67.9938 7.38829C65.5552 8.10732 66.54 11.4749 68.9422 11.9198C70.8702 12.2819 73.4755 11.7491 75.6276 11.9974C90.0196 13.6786 100.592 18.5877 109.487 30.0613C129.157 55.4345 129.085 91.2364 107.726 115.56C106.22 117.277 99.7064 122.579 99.4823 123.919C98.9456 127.194 102.822 128.114 104.688 130.949C105.865 132.734 108.273 137.245 104.745 137.902C99.7376 138.838 98.2786 134.617 94.6624 132.635C90.0352 130.101 88.3209 132.961 84.2826 134.151C72.4177 137.653 55.1442 138.233 43.0188 135.838C40.4603 135.331 34.1397 132.568 32.0033 132.858C28.856 133.277 25.5367 140.566 21.4307 138.693C18.0697 137.157 21.0242 132.258 22.4155 130.106C23.4316 128.538 25.9327 127.483 25.3804 125.481C25.0782 124.395 21.6078 122.186 20.5032 120.981C-1.55911 96.9112 -7.97353 61.7714 12.0044 34.4997C22.0872 20.7345 31.5968 13.9527 49.1987 11.9974C52.4398 11.6353 59.542 13.4458 58.2654 8.14355C58.0986 7.45037 53.2995 6.79341 52.2782 6.75202C49.4905 6.63822 38.8241 9.18847 40.0955 4.55869C41.5285 -0.655634 61.3137 0.627263 65.8053 0.591053C68.5878 0.570361 72.4334 -0.0710859 75.1534 0.00650822C76.4196 0.0427188 84.0429 1.62564 84.6578 2.24122L84.6786 2.23604ZM98.1432 28.1525C82.6673 15.1529 51.752 15.2512 33.9469 23.202C21.8423 28.6077 8.99263 48.7097 8.28918 61.8076C8.07554 65.7701 8.97701 67.0219 11.968 69.5101C14.2607 71.4138 22.2748 77.3419 24.6613 78.6093C27.3657 80.0474 27.3032 76.835 27.4699 74.6882C28.46 62.0197 26.8342 45.3266 38.4594 36.4654C46.9946 29.9578 77.4826 30.8631 86.8254 36.0205C97.6221 41.9797 97.0228 59.2832 98.3412 69.5463C99.6907 80.0422 101.171 75.8625 106.418 71.8948C108.486 70.3274 115.125 66.8564 115.505 64.8855C115.886 62.9146 113.833 54.55 113.166 52.2428C110.915 44.4524 104.365 33.3823 98.138 28.1473L98.1432 28.1525ZM59.8182 38.8035C54.2635 37.7069 46.7601 38.0173 42.628 42.1504C36.3542 48.4252 34.8848 58.7814 34.8327 67.2288C35.4267 67.8186 41.7317 66.7529 42.9562 66.7581C47.3437 66.7736 52.4971 67.891 56.921 67.1926C58.2862 66.9754 59.8182 65.7597 59.8182 64.3837V38.8035ZM89.3579 66.577C90.0769 65.9046 90.4677 63.8871 90.5563 62.8629C91.2024 55.3207 86.7785 42.8902 79.1917 39.983C76.3102 38.876 66.4358 36.2223 66.0242 40.6037C65.5396 45.787 65.5396 56.6812 66.0398 61.8283C66.4046 65.5838 67.8635 66.7271 71.5996 67.1513C75.3357 67.5754 82.9955 67.5599 86.6483 67.2495C87.508 67.1771 88.7065 67.1823 89.3579 66.577ZM54.8732 73.2036C50.0533 73.2294 41.5128 72.7846 37.2088 73.4622C33.7801 74.0002 33.7801 79.4783 33.827 82.4528C33.9573 90.6674 37.2765 102.353 47.0675 103.403C55.3578 104.293 74.2832 104.241 81.5157 100.905C89.3995 97.2681 92.7761 88.2051 92.0883 79.8922C91.5933 73.9123 90.4208 73.6381 85.1007 73.4053C75.4243 72.9811 64.6225 73.1415 54.8784 73.1984L54.8732 73.2036ZM114.328 74.533C112.983 74.7399 102.531 83.0529 101.457 84.5323C98.0963 89.1724 97.8461 95.3127 94.6103 99.958C92.8855 102.431 85.5853 106.807 85.3925 107.366C84.8141 109.057 89.2224 115.363 90.5303 116.573C94.6415 120.37 100.264 113.734 102.718 110.588C108.137 103.646 113.864 93.1142 115.396 84.4134C115.771 82.2666 117.293 74.0778 114.328 74.533ZM8.28398 75.5004C8.46114 84.9048 11.994 94.5058 16.5222 102.72C18.3459 106.036 21.6026 110.997 24.1403 113.765C24.9219 114.613 29.1269 118.436 29.9711 118.824C31.0184 119.31 31.5082 119.744 32.738 119.181C33.2069 118.963 39.0013 111.773 39.2358 111.137C40.3978 107.992 35.4997 105.255 33.5717 102.85C29.9763 98.3596 28.585 93.0108 24.6822 88.4172C23.3586 86.8601 9.74819 73.845 8.27876 75.5055L8.28398 75.5004ZM51.8822 110.206C48.3754 110.759 45.7596 115.477 50.7359 116.289C57.9684 117.474 67.7437 114.913 75.1899 115.591C76.899 115.327 76.7531 112.259 75.6797 111.157C73.6006 109.016 68.7494 110.656 66.3212 110.676C63.5751 110.702 60.8082 110.614 58.0153 110.65C56.155 110.676 53.1328 110.004 51.877 110.2L51.8822 110.206ZM86.2106 125.983C87.4664 124.374 85.7625 122.026 84.1523 121.369C81.3073 120.21 75.6223 122.766 72.0478 123.034C68.739 123.288 63.8565 123.567 60.6154 123.583C54.7846 123.614 48.2555 122.61 42.357 122.502C39.4077 123.179 36.818 125.517 40.3769 127.618C46.1296 131.006 66.5192 130.54 73.5485 129.697C75.4608 129.47 85.3873 127.038 86.2106 125.983Z" fill="#09432E"/>
</svg>
