<svg width="117" height="135" viewBox="0 0 117 135" fill="none" xmlns="http://www.w3.org/2000/svg">
<path d="M46.2299 44.2444C49.3058 45.024 51.9133 43.6359 54.9797 43.7547C56.8868 43.8261 61.5433 44.7198 63.4267 45.2522C65.6603 45.8845 69.5596 48.9364 70.6007 48.9982C71.8879 49.079 77.2022 46.0033 79.308 45.4376C83.2452 44.3823 87.5799 44.1255 91.4508 45.5897C92.6433 46.0413 94.6214 46.7782 94.4605 48.2661C94.1056 51.551 90.3435 49.602 88.5216 49.4879C86.3164 49.3453 77.3205 50.5575 76.2037 52.3212C75.2714 53.7996 82.5543 64.1487 78.3947 64.9473C74.9875 65.6034 72.7492 59.238 70.7806 56.8516C63.2847 47.7527 49.9021 47.0824 40.7878 54.237C38.6205 55.9388 33.4719 63.1076 31.508 63.0173C25.1952 62.7368 29.3596 56.9562 31.7209 54.3891C33.1122 52.8774 39.2215 48.4753 39.7136 47.458C41.422 43.9116 41.209 36.6335 42.5577 32.2647C43.3338 29.7499 46.3056 23.1326 48.9367 22.4908C52.112 21.7112 53.0537 24.6966 55.0554 25.153C56.1391 25.4002 58.5478 25.4049 59.6551 25.2243C62.3336 24.7917 64.4725 20.0236 67.6005 20.5798C72.664 21.483 65.6272 26.6077 66.0909 28.2715C66.8765 31.081 73.6956 28.3333 75.2856 27.1543C78.3 24.9248 78.7922 18.1363 76.9135 15.1747C74.3155 11.0769 68.3056 6.4086 63.4267 5.81913C54.2604 4.71624 37.2671 16.9574 30.5994 23.1088C20.6712 32.2647 9.26664 48.0142 7.08509 61.6957C5.78373 69.8581 12.9814 70.2241 18.343 72.9576C22.8765 75.2679 27.0361 79.0757 31.7067 81.3766C55.6896 93.1946 75.3755 79.3372 96.6279 69.4873C98.8094 68.4747 105.846 66.2974 107.053 64.9996C112.121 59.5375 101.814 45.6753 97.2288 42.1527C94.9053 40.37 87.0167 36.9663 88.6257 32.9921C90.1826 29.151 96.1925 31.4185 98.6674 33.1062C107.313 39.0152 115.675 54.0468 116.645 64.4339C119.352 93.3373 106.575 121.722 78.3473 131.858C46.7977 143.186 9.30449 122.668 2.0027 89.8432C-2.04333 71.6645 -0.017949 57.6455 8.61832 41.3873C16.6489 26.2987 35.0051 9.79809 50.6261 2.84798C63.8431 -3.03252 74.3392 0.185832 81.7735 12.5743C88.4743 23.7411 77.8268 37.9883 65.1066 34.0664C63.4125 33.5435 62.2626 30.9669 59.1961 30.5058C57.8143 30.3014 49.9825 30.2729 49.0597 30.7102C47.1053 31.642 46.4428 41.8057 46.2299 44.2396V44.2444ZM109.992 72.33C108.747 72.0828 107.555 72.292 106.348 72.601C101.885 73.7419 82.152 81.9423 79.1518 84.6948C75.5932 87.9512 82.9612 89.9383 85.1381 91.3644C90.5754 94.9345 94.7539 99.6599 99.6612 103.867C101.776 104.97 104.559 101.305 105.42 99.6836C106.689 97.2924 109.769 86.2113 110.044 83.4303C110.181 82.0041 110.583 72.8292 110.001 72.3348L109.992 72.33ZM20.8889 105.246C25.6211 102.023 32.5822 97.8962 36.7276 94.3165C41.9141 89.8384 34.5745 89.9145 31.4607 88.7688C28.0488 87.5138 22.1856 84.6092 19.1191 82.6459C17.2073 81.4194 10.4639 74.764 8.40537 75.8051C6.67339 76.6846 6.78696 83.9389 6.98098 85.8119C7.42581 90.0809 12.7448 103.097 16.204 105.517C18.7168 107.271 19.0102 106.524 20.8889 105.246ZM65.4899 89.9288C62.6364 90.3946 61.69 93.8079 61.4013 96.3084C60.6915 102.446 61.2073 111.354 61.3682 117.61C61.5622 124.946 59.3807 127.351 68.67 126.41C72.8911 125.982 81.8918 121.96 85.6018 119.674C88.1051 118.133 95.3076 112.719 95.1325 109.728C95.0189 107.822 93.4241 106.472 92.0802 105.274C87.9821 101.614 77.964 94.1882 73.1325 92.0157C72.1434 91.5688 66.3276 89.7909 65.4852 89.9288H65.4899ZM26.0944 116.241C30.9638 120.42 43.949 127.261 50.2428 127.403C57.2843 127.565 54.8567 123.158 55.2069 118.109C55.311 116.641 56.1297 115.195 56.1628 113.812C56.2101 111.93 55.1643 109.567 55.1643 107.656C55.1596 104.281 55.9167 99.7597 56.1297 96.2799C53.773 89.3298 46.5469 94.2357 42.4772 96.7743C36.084 100.758 29.989 106.344 24.0548 111.036C22.6256 113.327 24.4475 114.834 26.0944 116.246V116.241Z" fill="#09432E"/>
</svg>
