<svg width="123" height="125" viewBox="0 0 123 125" fill="none" xmlns="http://www.w3.org/2000/svg">
<path d="M56.1981 0.0771614C74.3719 -0.635871 86.0437 3.53561 99.7774 14.9781C141.013 49.3298 124.371 110.655 73.195 123.64C52.5312 128.884 22.5883 118.494 10.6248 100.508C-6.47432 74.8001 -3.3035 31.6155 22.8217 12.8293C29.6157 7.94478 47.9452 0.402154 56.1981 0.0820167V0.0771614ZM9.1804 78.4477C8.58222 80.582 9.67159 82.658 10.547 84.5934C25.6035 117.728 65.8272 128.151 94.919 105.577C115.053 89.9532 120.49 64.6479 112.067 41.0062C107.627 28.5354 86.8996 11.3644 73.8953 8.81787C61.7032 6.43139 52.3999 6.03365 40.6309 10.729C26.26 16.4624 14.885 27.8466 9.77371 42.4614C7.69225 48.4082 5.52325 60.5928 8.7038 66.0885C12.1859 72.108 26.7901 85.3404 32.8303 89.0316C35.2862 90.5353 42.7756 95.2064 44.8862 92.4998C45.9221 91.1707 45.8832 81.7703 45.6351 79.6555C44.9835 74.1986 38.7585 76.3571 34.6734 76.0515C31.7214 75.8333 24.6649 75.2221 23.0746 72.6028C21.747 70.4152 22.8169 69.2511 22.8169 67.0877C22.8169 62.0528 21.961 55.3396 22.3695 50.6491C22.6029 47.9571 22.9531 46.0799 25.798 45.3523C29.7956 44.3288 41.1123 45.6628 43.5342 43.4121C45.9561 41.1614 44.9397 34.3464 45.1488 31.2129C45.2558 29.5783 45.5379 24.9654 45.995 23.8207C47.8819 19.1496 55.4054 21.0753 59.0722 21.0898C62.6759 21.1044 72.0959 20.1051 74.9069 22.2297C78.6273 25.0479 76.609 36.5582 77.1877 40.9238C77.4017 42.5293 78.8704 43.9214 80.4412 44.358C84.1762 45.396 91.5342 44.2512 95.3324 45.1146C98.1531 45.7598 100.225 49.3007 100.536 52.0413C100.983 56.0139 100.935 64.9874 100.556 69.0231C100.293 71.817 98.761 74.349 95.809 74.9504C92.1859 75.6877 81.6716 74.2811 79.1379 76.7403C75.9914 79.7962 78.2333 92.4464 77.6984 97.1127C77.2121 101.352 73.5355 103.006 69.606 103.137C54.0242 103.671 37.9999 100.455 25.2679 91.2532C20.6333 87.9063 16.0181 81.9498 11.5926 79.2093C10.8096 78.7242 10.1774 78.3119 9.19012 78.4526L9.1804 78.4477ZM70.2674 27.6866C69.961 27.3519 68.2199 26.7019 67.685 26.6291C65.73 26.3575 60.5215 26.1586 58.4886 26.2169C55.3032 26.3042 52.4728 26.8038 51.9719 30.2768C51.2473 35.2777 52.7209 42.5826 51.116 46.8657C48.271 54.4568 32.5287 48.3936 29.7227 51.9345C28.04 54.0591 28.2783 67.7716 30.2625 69.2898C32.4461 70.9536 44.8619 68.3197 49.1902 70.7644C54.4181 73.7136 50.474 88.4447 52.5215 94.0908C53.6157 97.1127 66.119 97.4619 68.575 96.2687C73.4236 93.9113 70.6175 79.8253 71.3908 74.8486C72.7427 66.103 88.9081 72.9375 92.7209 68.9843C93.2412 68.4458 93.4601 67.66 93.5914 66.9422C94.0291 64.5605 94.4279 57.8231 94.2139 55.4075C93.5914 48.3839 84.2102 50.7753 79.3859 50.3339C76.7549 50.0913 72.5725 49.2473 71.6291 46.4437C71.4394 42.6797 71.1282 38.8332 70.9725 35.0788C70.8996 33.2405 71.9355 29.5152 70.2674 27.6866Z" fill="#09432E"/>
</svg>
