<svg width="129" height="129" viewBox="0 0 129 129" fill="none" xmlns="http://www.w3.org/2000/svg">
<path d="M112.152 19.9808C116.149 24.4063 120.057 29.5149 119.741 35.779C114.78 37.7682 114.404 32.5842 112.207 29.7159C105.802 21.3521 92.5547 13.4204 82.6385 10.1503C55.9392 1.33947 21.7162 12.461 11.1329 39.9282C9.44754 44.2984 7.03993 51.9488 10.4005 55.646C12.437 57.8863 24.5602 64.08 27.5797 64.3211C29.9071 64.507 30.5992 63.8339 31.4218 61.7492C33.4833 56.52 36.212 45.0419 37.1349 39.3656C37.7217 35.7639 37.2302 28.7112 39.8033 26.4809C40.3851 25.9735 41.7896 25.3808 42.572 25.2452C50.9886 23.7583 68.7296 24.2054 77.6427 24.6926C79.9299 24.8182 85.4674 25.2703 87.4185 25.9434C89.3697 26.6165 89.8061 29.1131 90.097 30.831C91.2607 37.733 89.9766 52.0242 88.2762 58.9663C86.6511 65.592 79.1123 63.1206 73.5949 63.3366C67.8418 63.5576 61.9131 64.3362 56.0847 63.8489C53.8376 63.6631 48.0443 63.1708 50.0556 59.8303C51.43 57.5397 65.4743 58.4289 68.6292 58.3485C70.9215 58.2882 73.2087 57.8261 75.6464 57.806C77.9336 57.7859 79.017 59.0919 81.1437 57.3388C84.2034 54.8171 83.0698 49.4573 83.3958 46.0465C84.0328 39.3907 87.6593 31.4389 78.5405 30.4242C73.0783 29.8163 67.5107 30.6251 62.1137 30.7557C58.8735 30.8361 48.3854 30.0625 46.3489 31.5293C44.1972 33.0815 43.1739 42.5805 42.3664 45.6095C40.4905 52.6571 37.9174 59.5089 36.2421 66.6268C36.1418 67.973 37.7067 69.1284 38.8302 69.5956C51.6256 74.9001 71.9447 75.8144 85.673 74.8901C88.9484 74.6691 89.0336 76.3669 91.8977 73.1319C98.1674 66.0441 108.5 45.288 117.94 43.5148C123.683 42.4398 127.751 47.8398 128.443 53.1142C131.568 76.9697 121.456 106.883 100.369 119.763C47.1866 152.243 -20.9233 93.1496 6.13206 34.4177C24.4248 -5.30128 83.8422 -11.3644 112.162 19.9959L112.152 19.9808ZM116.796 51.8936C113.942 52.7827 113.616 57.4393 117.077 58.9513C123.126 61.5935 123.307 49.8642 116.796 51.8936ZM108.796 61.91C108.064 62.1109 99.9932 71.7355 98.9349 73.152C96.2213 76.7788 93.5479 80.5463 90.8945 84.1731C90.2224 85.0973 86.31 90.5376 86.1595 90.9696C85.337 93.3556 86.2147 95.601 88.522 96.6006C90.5986 97.4998 92.2438 96.4449 93.6582 94.9731C98.4634 89.99 103.419 81.9679 107.522 76.2363C109.077 74.0663 114.499 68.2142 114.484 66.0944C114.474 64.3412 110.281 61.4981 108.791 61.9049L108.796 61.91ZM51.746 80.8527C53.7724 77.3565 41.8949 76.5578 40.2698 76.161C32.7811 74.3275 22.1275 69.2439 14.8947 65.9437C10.8219 64.0851 6.51829 59.0668 7.27568 67.5511C7.93275 74.9052 10.6262 85.3485 15.316 91.1102C21.4504 98.6451 26.401 92.6825 33.0821 89.5027C39.2666 86.5541 45.5314 83.731 51.746 80.8527ZM120.959 70.8765C119.033 68.9677 115.427 76.7637 114.654 77.8588C112.593 80.7773 110.13 83.4045 108.019 86.2678C103.785 91.9993 97.6007 101.448 92.1685 106.024C90.5334 107.401 85.7432 109.219 83.5363 110.43C80.908 111.871 77.432 115.805 73.9811 114.172C71.8594 113.167 72.5717 108.415 72.973 106.376C73.4545 103.92 76.6395 95.7215 77.7831 93.1245C78.6609 91.1303 83.8222 83.5753 83.757 82.6661C83.6165 80.8326 73.1334 81.0386 71.7039 81.8925C70.8512 82.3999 69.0556 87.1519 68.5991 88.4428C66.1665 95.2594 60.9801 111.158 60.8848 117.869C60.8447 120.692 64.1602 120.893 66.5828 121.084C90.4431 122.973 111.018 106.301 118.717 84.4343C119.414 82.4601 122.063 71.9665 120.964 70.8815L120.959 70.8765ZM62.2642 84.4996C61.4366 83.1785 56.0446 86.0267 54.7956 86.6646C46.4894 90.8942 37.9826 94.4758 29.5861 98.5547C23.2812 101.619 24.7308 102.272 29.5309 106.496C33.2978 109.812 44.3527 116.653 49.1277 117.528C50.2764 117.739 51.751 118.005 52.7993 117.281C54.284 116.262 56.7568 105.21 57.469 102.89C58.3368 100.072 63.4078 86.3281 62.2692 84.4996H62.2642ZM80.8729 104.497C84.9257 104.472 86.7715 101.051 81.8861 99.9863C81.4698 101.523 80.5469 102.804 80.8729 104.497Z" fill="#09432E"/>
</svg>
