<svg width="816" height="188" viewBox="0 0 816 188" fill="#EAA021" xmlns="http://www.w3.org/2000/svg">
<g clip-path="url(#clip0_31_2)">
<path d="M346.753 7.07853L368.409 75.3337C369.078 77.4493 372.074 77.4811 372.775 75.3655L395.467 7.06262C395.706 6.36273 396.535 5.86963 397.491 5.86963H458.236C459.383 5.86963 460.324 6.56952 460.324 7.44438V180.238C460.324 181.113 459.399 181.812 458.236 181.812H402.558C401.411 181.812 400.471 181.113 400.471 180.238V97.5393C400.471 96.5372 395.786 96.4258 396.136 98.621L374.321 142.348C374.129 143.08 373.285 143.605 372.297 143.621H370.305C369.317 143.637 368.457 143.112 368.249 142.38L345.701 97.6507C345.398 97.0303 344.681 96.8871 343.868 96.8712C342.721 96.8553 341.781 97.5711 341.781 98.446V180.254C341.781 181.128 340.857 181.828 339.693 181.828H284.015C282.868 181.828 281.928 181.128 281.928 180.254V7.44438C281.928 6.56952 282.852 5.86963 284.015 5.86963H344.729C345.685 5.86963 346.53 6.36273 346.753 7.07853Z" fill="#EAA021"/>
<path d="M194.124 5.86963C195.271 5.86963 196.212 6.56952 196.212 7.44438V141.966C196.212 142.809 197.518 146.15 198.251 146.961C200.435 149.363 204.641 149.363 206.84 146.961C207.574 146.166 208.88 142.809 208.88 141.966V7.44438C208.88 6.56952 209.804 5.86963 210.968 5.86963H266.646C267.793 5.86963 268.733 6.56952 268.733 7.44438V147.136C268.733 147.136 268.749 147.216 268.749 147.263C266.741 172.937 244.416 184.485 212.083 185.741C174.141 187.221 138.988 180.556 136.375 147.263C136.375 147.216 136.375 147.184 136.375 147.136V7.44438C136.406 6.56952 137.331 5.86963 138.478 5.86963H194.156H194.124Z" fill="#EAA021"/>
<path d="M685.155 2.08384C750.458 -1.52695 760.226 48.3879 761.804 86.2138C763.429 125.121 757.963 188.843 687.29 186.155C629.238 183.96 621.159 136.574 619.677 101.898C618.131 65.7102 622.354 5.55148 685.155 2.06794V2.08384ZM689.696 45.1589C685.41 46.1292 683.896 57.1047 683.545 60.0952C681.378 78.1333 681.888 103.202 682.94 121.511C683.195 125.98 684.247 137.703 687.561 141.092C691.274 144.893 694.668 141.537 696.023 138.356C698.525 132.518 698.11 125.376 698.461 119.3C699.592 100.132 700.74 75.97 697.903 57.0411C697.441 53.9552 695.959 43.7273 689.68 45.143L689.696 45.1589Z" fill="#EAA021"/>
<path d="M124.853 7.44438V50.5512C124.853 50.8057 124.774 51.0603 124.614 51.2829L67.1833 134.204C66.4503 135.254 67.4542 136.51 69.0318 136.51H122.766C123.913 136.51 124.853 137.21 124.853 138.085V180.222C124.853 181.097 123.929 181.797 122.766 181.797H2.08753C0.940184 181.797 0 181.097 0 180.222V136.24C0 135.986 0.0796766 135.731 0.23903 135.508L56.5385 53.4462C57.2556 52.3964 56.2517 51.1398 54.69 51.1398H2.08753C0.940184 51.1398 0 50.4399 0 49.565V7.44438C0 6.56952 0.924249 5.86963 2.08753 5.86963H122.782C123.929 5.86963 124.869 6.56952 124.869 7.44438H124.853Z" fill="#EAA021"/>
<path d="M552.207 86.8818C551.028 86.8818 550.072 86.1501 550.119 85.2594C550.677 75.1269 552.988 63.4673 549.88 53.7007C546.629 43.5046 540.431 47.3381 537.674 55.0846C531.093 73.6158 532.176 113.509 536.415 132.693C537.626 138.149 543.108 149.22 548.032 148.743C550.167 148.536 551.745 146.15 552.717 144.161L552.812 143.955C553.737 141.728 553.673 139.246 552.749 137.035C552.51 136.463 552.43 136.065 552.573 135.938C552.669 135.842 552.924 135.858 553.561 136.288C554.98 137.258 556.031 138.737 556.589 140.423C560.908 153.419 559.457 166.972 552.032 175.529C544.845 183.833 534.296 185.041 529.053 185.312C485.438 187.523 474.14 142.189 471.239 117.597C466.331 75.9381 468.323 -1.63833 546.884 1.97247C603.264 4.56524 614.02 50.758 610.514 85.4343C610.482 85.6889 610.387 85.9115 610.227 86.1342C609.845 86.6114 609.176 86.8978 608.443 86.8978H552.223L552.207 86.8818Z" fill="#EAA021"/>
<path d="M608.395 178.17H572.572C571.536 178.17 570.66 177.597 570.517 176.834L561.848 132.916C561.688 132.136 560.812 131.579 559.792 131.579H546.406C545.259 131.579 544.319 130.879 544.319 130.005V93.9125L545.179 93.2604H609.622L610.482 93.9125V176.611C610.482 177.486 609.558 178.186 608.395 178.186V178.17Z" fill="#EAA021"/>
<path d="M786.982 125.614C786.886 125.614 786.807 125.535 786.807 125.424C787.046 122.354 787.285 119.538 787.285 116.452C787.285 80.1056 761.023 65.233 761.023 29.7454C761.023 11.4369 769.119 -0.0158691 788.512 -0.0158691C807.905 -0.0158691 816 11.4369 816 29.7454C816 65.233 789.739 80.1056 789.739 116.452C789.739 119.538 789.978 122.354 790.217 125.424C790.217 125.519 790.153 125.614 790.042 125.614H786.966H786.982ZM813.801 160.243C813.801 177.406 804.957 188 788.528 188C771.095 188 763.254 177.708 763.254 160.243C763.254 142.778 773.071 133.345 788.528 133.345C803.985 133.345 813.801 143.366 813.801 160.243Z" fill="#EAA021"/>
</g>
<defs>
<clipPath id="clip0_31_2">
<rect width="816" height="188" fill="white"/>
</clipPath>
</defs>
</svg>
